<svg width="16" height="16" viewBox="0 0 16 16" fill="none" xmlns="http://www.w3.org/2000/svg">
<rect width="16.0005" height="16.0005" rx="2.63744" fill="#131313"/>
<path d="M11.8411 12.1291H14.9163M14.9163 12.1291L13.2014 10.4143M14.9163 12.1291L13.2014 13.844M10.4619 1.71387L7.12109 3.56008L9.18709 6.76897" stroke="white" stroke-width="1.23081" stroke-linejoin="round"/>
<path d="M7.85065 3.86328C8.98461 3.86328 10.0721 4.31375 10.874 5.11558C11.6758 5.91741 12.1263 7.00493 12.1263 8.13889C12.1263 9.27286 11.6758 10.3604 10.874 11.1622C10.0721 11.964 8.98461 12.4145 7.85065 12.4145C7.85065 12.4145 6.5 12.5 4.5 12C2.5 11.5 2 14 2 14" stroke="white" stroke-width="2.02204" stroke-linejoin="round"/>
<path d="M5.71445 4.65918C5.07294 4.99045 4.54015 5.46738 4.16973 6.04194C3.79932 6.61651 3.5 7.5 3.5 8.5C3.5 9.5 4 10 4 10" stroke="white" stroke-width="1.7583" stroke-linejoin="round"/>
<mask id="path-5-outside-1_651_1396" maskUnits="userSpaceOnUse" x="4.2749" y="5.02246" width="6" height="6" fill="black">
<rect fill="white" x="4.2749" y="5.02246" width="6" height="6"/>
<path d="M7.2201 10.5364C6.89482 10.5364 6.5999 10.4518 6.33533 10.2827C6.07077 10.1179 5.86041 9.89452 5.70428 9.6126C5.55248 9.32635 5.47658 9.00757 5.47658 8.65627C5.47658 8.32664 5.5373 8.02955 5.65874 7.76499C5.78018 7.49608 5.94499 7.26622 6.15317 7.07538C6.36569 6.88455 6.6064 6.73925 6.8753 6.6395C7.1442 6.53541 7.42612 6.48336 7.72104 6.48336C7.96826 6.48336 8.21114 6.51806 8.44968 6.58746C8.46703 6.49638 8.48221 6.4053 8.49522 6.31422L9.60769 6.50288C9.57733 6.58529 9.54697 6.70889 9.51661 6.87371C9.48625 7.03852 9.46023 7.22284 9.43855 7.42669C9.4212 7.63053 9.40602 7.83438 9.39301 8.03822C9.37999 8.24207 9.37349 8.4264 9.37349 8.59121C9.37349 8.72566 9.38216 8.85794 9.39951 8.98806C9.4212 9.11383 9.46457 9.21792 9.52963 9.30033C9.59468 9.3784 9.69444 9.41743 9.82889 9.41743H9.91997L9.75732 10.5494C9.47107 10.5494 9.2347 10.4995 9.0482 10.3998C8.86171 10.3044 8.71208 10.1743 8.59931 10.0094C8.41282 10.2176 8.2003 10.3564 7.96175 10.4258C7.72321 10.4995 7.476 10.5364 7.2201 10.5364ZM6.54351 8.78638C6.5652 8.99456 6.64977 9.16154 6.79723 9.28732C6.94903 9.40876 7.13987 9.46948 7.36974 9.46948C7.59093 9.46948 7.77526 9.41093 7.92272 9.29382C8.07018 9.17238 8.19162 9.00757 8.28704 8.79939C8.2827 8.73 8.28053 8.65843 8.28053 8.5847C8.28053 8.4329 8.28487 8.27677 8.29354 8.11629C8.30222 7.95582 8.31306 7.79751 8.32607 7.64138C8.14391 7.57198 7.95308 7.53729 7.75357 7.53729C7.51937 7.53729 7.30902 7.58499 7.12252 7.68041C6.94036 7.77149 6.79723 7.89944 6.69314 8.06425C6.58905 8.22906 6.53701 8.41989 6.53701 8.63675C6.53701 8.66277 6.53701 8.68879 6.53701 8.71482C6.53701 8.74084 6.53918 8.76469 6.54351 8.78638Z"/>
</mask>
<path d="M7.2201 10.5364C6.89482 10.5364 6.5999 10.4518 6.33533 10.2827C6.07077 10.1179 5.86041 9.89452 5.70428 9.6126C5.55248 9.32635 5.47658 9.00757 5.47658 8.65627C5.47658 8.32664 5.5373 8.02955 5.65874 7.76499C5.78018 7.49608 5.94499 7.26622 6.15317 7.07538C6.36569 6.88455 6.6064 6.73925 6.8753 6.6395C7.1442 6.53541 7.42612 6.48336 7.72104 6.48336C7.96826 6.48336 8.21114 6.51806 8.44968 6.58746C8.46703 6.49638 8.48221 6.4053 8.49522 6.31422L9.60769 6.50288C9.57733 6.58529 9.54697 6.70889 9.51661 6.87371C9.48625 7.03852 9.46023 7.22284 9.43855 7.42669C9.4212 7.63053 9.40602 7.83438 9.39301 8.03822C9.37999 8.24207 9.37349 8.4264 9.37349 8.59121C9.37349 8.72566 9.38216 8.85794 9.39951 8.98806C9.4212 9.11383 9.46457 9.21792 9.52963 9.30033C9.59468 9.3784 9.69444 9.41743 9.82889 9.41743H9.91997L9.75732 10.5494C9.47107 10.5494 9.2347 10.4995 9.0482 10.3998C8.86171 10.3044 8.71208 10.1743 8.59931 10.0094C8.41282 10.2176 8.2003 10.3564 7.96175 10.4258C7.72321 10.4995 7.476 10.5364 7.2201 10.5364ZM6.54351 8.78638C6.5652 8.99456 6.64977 9.16154 6.79723 9.28732C6.94903 9.40876 7.13987 9.46948 7.36974 9.46948C7.59093 9.46948 7.77526 9.41093 7.92272 9.29382C8.07018 9.17238 8.19162 9.00757 8.28704 8.79939C8.2827 8.73 8.28053 8.65843 8.28053 8.5847C8.28053 8.4329 8.28487 8.27677 8.29354 8.11629C8.30222 7.95582 8.31306 7.79751 8.32607 7.64138C8.14391 7.57198 7.95308 7.53729 7.75357 7.53729C7.51937 7.53729 7.30902 7.58499 7.12252 7.68041C6.94036 7.77149 6.79723 7.89944 6.69314 8.06425C6.58905 8.22906 6.53701 8.41989 6.53701 8.63675C6.53701 8.66277 6.53701 8.68879 6.53701 8.71482C6.53701 8.74084 6.53918 8.76469 6.54351 8.78638Z" fill="white"/>
<path d="M6.33533 10.2827L6.52477 9.98639L6.52127 9.98421L6.33533 10.2827ZM5.70428 9.6126L5.39355 9.77738L5.39665 9.78298L5.70428 9.6126ZM5.65874 7.76499L5.97834 7.91169L5.97923 7.90972L5.65874 7.76499ZM6.15317 7.07538L5.91821 6.81372L5.91555 6.81616L6.15317 7.07538ZM6.8753 6.6395L6.99762 6.96924L7.00225 6.96745L6.8753 6.6395ZM8.44968 6.58746L8.35145 6.92512C8.44657 6.95279 8.54895 6.93906 8.63341 6.8873C8.71788 6.83555 8.77659 6.75057 8.79513 6.65325L8.44968 6.58746ZM8.49522 6.31422L8.55402 5.96751C8.4605 5.95165 8.36454 5.97424 8.28791 6.03016C8.21129 6.08608 8.16051 6.17058 8.1471 6.26448L8.49522 6.31422ZM9.60769 6.50288L9.93767 6.62445C9.97383 6.52631 9.96442 6.41716 9.91201 6.32665C9.8596 6.23614 9.76961 6.17366 9.66649 6.15617L9.60769 6.50288ZM9.51661 6.87371L9.17077 6.81L9.17077 6.81L9.51661 6.87371ZM9.43855 7.42669L9.08878 7.38948L9.08815 7.39687L9.43855 7.42669ZM9.39301 8.03822L9.04206 8.01582L9.04206 8.01582L9.39301 8.03822ZM9.39951 8.98806L9.05068 9.03457L9.05297 9.04781L9.39951 8.98806ZM9.52963 9.30033L9.25352 9.51831L9.25947 9.52546L9.52963 9.30033ZM9.91997 9.41743L10.2681 9.46744C10.2826 9.36649 10.2525 9.26421 10.1857 9.18713C10.1189 9.11005 10.022 9.06577 9.91997 9.06577V9.41743ZM9.75732 10.5494V10.9011C9.93222 10.9011 10.0805 10.7726 10.1054 10.5994L9.75732 10.5494ZM9.0482 10.3998L9.21409 10.0897L9.20838 10.0867L9.0482 10.3998ZM8.59931 10.0094L8.88954 9.81087C8.82856 9.72174 8.73 9.66558 8.62223 9.65854C8.51447 9.6515 8.40944 9.69437 8.33738 9.77481L8.59931 10.0094ZM7.96175 10.4258L7.86351 10.0881L7.85791 10.0898L7.96175 10.4258ZM6.54351 8.78638L6.89328 8.74995C6.89214 8.73903 6.89049 8.72817 6.88834 8.71741L6.54351 8.78638ZM6.79723 9.28732L6.56891 9.555L6.57755 9.56192L6.79723 9.28732ZM7.92272 9.29382L8.14144 9.56925L8.14627 9.56528L7.92272 9.29382ZM8.28704 8.79939L8.60672 8.94591C8.63088 8.8932 8.64163 8.83533 8.63801 8.77745L8.28704 8.79939ZM8.32607 7.64138L8.67652 7.67058C8.68953 7.51444 8.59768 7.36853 8.45126 7.31276L8.32607 7.64138ZM7.12252 7.68041L7.27979 7.99496L7.28269 7.99348L7.12252 7.68041ZM6.69314 8.06425L6.39582 7.87646L6.39582 7.87646L6.69314 8.06425ZM7.2201 10.5364V10.1848C6.95941 10.1848 6.73066 10.118 6.52476 9.98641L6.33533 10.2827L6.14591 10.579C6.46913 10.7856 6.83023 10.8881 7.2201 10.8881V10.5364ZM6.33533 10.2827L6.52127 9.98421C6.30927 9.85214 6.14007 9.67362 6.01191 9.44222L5.70428 9.6126L5.39665 9.78298C5.58076 10.1154 5.83226 10.3836 6.14939 10.5812L6.33533 10.2827ZM5.70428 9.6126L6.01496 9.44785C5.8923 9.21655 5.82824 8.95509 5.82824 8.65627H5.47658H5.12492C5.12492 9.06006 5.21266 9.43615 5.3936 9.77736L5.70428 9.6126ZM5.47658 8.65627H5.82824C5.82824 8.37057 5.88065 8.1245 5.97834 7.91169L5.65874 7.76499L5.33914 7.61828C5.19395 7.9346 5.12492 8.28272 5.12492 8.65627H5.47658ZM5.65874 7.76499L5.97923 7.90972C6.08197 7.68222 6.21927 7.49184 6.3908 7.33461L6.15317 7.07538L5.91555 6.81616C5.67071 7.04059 5.47838 7.30995 5.33825 7.62025L5.65874 7.76499ZM6.15317 7.07538L6.38812 7.33703C6.56757 7.1759 6.77003 7.05363 6.99761 6.9692L6.8753 6.6395L6.75299 6.3098C6.44277 6.42488 6.16381 6.5932 5.91822 6.81373L6.15317 7.07538ZM6.8753 6.6395L7.00225 6.96745C7.22973 6.87939 7.46852 6.83502 7.72104 6.83502V6.48336V6.1317C7.38371 6.1317 7.05868 6.19143 6.74836 6.31155L6.8753 6.6395ZM7.72104 6.48336V6.83502C7.93485 6.83502 8.14467 6.86496 8.35145 6.92512L8.44968 6.58746L8.54791 6.24979C8.27761 6.17116 8.00166 6.1317 7.72104 6.1317V6.48336ZM8.44968 6.58746L8.79513 6.65325C8.81349 6.55688 8.82956 6.46044 8.84335 6.36395L8.49522 6.31422L8.1471 6.26448C8.13486 6.35015 8.12057 6.43587 8.10423 6.52166L8.44968 6.58746ZM8.49522 6.31422L8.43642 6.66092L9.5489 6.84959L9.60769 6.50288L9.66649 6.15617L8.55402 5.96751L8.49522 6.31422ZM9.60769 6.50288L9.27772 6.38131C9.23676 6.49248 9.20213 6.63978 9.17077 6.81L9.51661 6.87371L9.86245 6.93741C9.89182 6.778 9.91791 6.6781 9.93767 6.62445L9.60769 6.50288ZM9.51661 6.87371L9.17077 6.81C9.13849 6.98527 9.11129 7.17864 9.08886 7.38949L9.43855 7.42669L9.78823 7.46389C9.80917 7.26705 9.83402 7.09176 9.86245 6.93741L9.51661 6.87371ZM9.43855 7.42669L9.08815 7.39687C9.0706 7.60318 9.05523 7.8095 9.04206 8.01582L9.39301 8.03822L9.74395 8.06063C9.7568 7.85926 9.7718 7.65789 9.78894 7.45651L9.43855 7.42669ZM9.39301 8.03822L9.04206 8.01582C9.02868 8.22545 9.02183 8.41741 9.02183 8.59121H9.37349H9.72515C9.72515 8.43538 9.73131 8.25869 9.74395 8.06062L9.39301 8.03822ZM9.37349 8.59121H9.02183C9.02183 8.74083 9.03149 8.88864 9.05094 9.03453L9.39951 8.98806L9.74809 8.94158C9.73284 8.82724 9.72515 8.71049 9.72515 8.59121H9.37349ZM9.39951 8.98806L9.05297 9.04781C9.08248 9.219 9.14518 9.38088 9.25361 9.51823L9.52963 9.30033L9.80564 9.08243C9.78396 9.05496 9.75991 9.00867 9.74606 8.92831L9.39951 8.98806ZM9.52963 9.30033L9.25947 9.52546C9.41139 9.70776 9.62606 9.76909 9.82889 9.76909V9.41743V9.06577C9.81215 9.06577 9.80022 9.06455 9.79237 9.06324C9.78459 9.06194 9.78132 9.06065 9.78138 9.06068C9.7816 9.06076 9.78444 9.06193 9.78861 9.0649C9.79285 9.06791 9.79674 9.07155 9.79978 9.0752L9.52963 9.30033ZM9.82889 9.41743V9.76909H9.91997V9.41743V9.06577H9.82889V9.41743ZM9.91997 9.41743L9.57188 9.36742L9.40924 10.4994L9.75732 10.5494L10.1054 10.5994L10.2681 9.46744L9.91997 9.41743ZM9.75732 10.5494V10.1978C9.50939 10.1978 9.33471 10.1542 9.21407 10.0897L9.0482 10.3998L8.88234 10.7099C9.13469 10.8449 9.43276 10.9011 9.75732 10.9011V10.5494ZM9.0482 10.3998L9.20838 10.0867C9.07145 10.0167 8.96754 9.92487 8.88954 9.81087L8.59931 10.0094L8.30908 10.208C8.45662 10.4236 8.65197 10.5921 8.88803 10.7129L9.0482 10.3998ZM8.59931 10.0094L8.33738 9.77481C8.18911 9.94032 8.03129 10.0393 7.86352 10.0882L7.96175 10.4258L8.05998 10.7635C8.3693 10.6735 8.63652 10.4949 8.86124 10.2441L8.59931 10.0094ZM7.96175 10.4258L7.85791 10.0898C7.65384 10.1529 7.44168 10.1848 7.2201 10.1848V10.5364V10.8881C7.51032 10.8881 7.79259 10.8462 8.0656 10.7618L7.96175 10.4258ZM6.54351 8.78638L6.19375 8.82281C6.22396 9.11292 6.34709 9.36557 6.56903 9.55487L6.79723 9.28732L7.02544 9.01976C6.95245 8.95751 6.90643 8.87621 6.89328 8.74995L6.54351 8.78638ZM6.79723 9.28732L6.57755 9.56192C6.80261 9.74196 7.07519 9.82114 7.36974 9.82114V9.46948V9.11782C7.20455 9.11782 7.09546 9.07556 7.01691 9.01272L6.79723 9.28732ZM7.36974 9.46948V9.82114C7.65588 9.82114 7.9213 9.744 8.14141 9.56921L7.92272 9.29382L7.70403 9.01844C7.62921 9.07785 7.52597 9.11782 7.36974 9.11782V9.46948ZM7.92272 9.29382L8.14627 9.56528C8.34219 9.40393 8.49348 9.19297 8.60672 8.94591L8.28704 8.79939L7.96736 8.65287C7.88976 8.82217 7.79817 8.94083 7.69917 9.02237L7.92272 9.29382ZM8.28704 8.79939L8.63801 8.77745C8.63416 8.71579 8.63219 8.65155 8.63219 8.5847H8.28053H7.92887C7.92887 8.66532 7.93124 8.74421 7.93606 8.82133L8.28704 8.79939ZM8.28053 8.5847H8.63219C8.63219 8.43959 8.63634 8.28979 8.64469 8.13527L8.29354 8.11629L7.9424 8.09731C7.9334 8.26374 7.92887 8.42622 7.92887 8.5847H8.28053ZM8.29354 8.11629L8.64469 8.13527C8.65319 7.97812 8.6638 7.82323 8.67652 7.67058L8.32607 7.64138L7.97563 7.61217C7.96233 7.7718 7.95125 7.93351 7.9424 8.09731L8.29354 8.11629ZM8.32607 7.64138L8.45126 7.31276C8.22818 7.22777 7.99484 7.18563 7.75357 7.18563V7.53729V7.88895C7.91132 7.88895 8.05965 7.9162 8.20088 7.97L8.32607 7.64138ZM7.75357 7.53729V7.18563C7.47033 7.18563 7.20403 7.2437 6.96235 7.36735L7.12252 7.68041L7.28269 7.99348C7.414 7.92629 7.56841 7.88895 7.75357 7.88895V7.53729ZM7.12252 7.68041L6.96525 7.36588C6.72841 7.4843 6.53573 7.65493 6.39582 7.87646L6.69314 8.06425L6.99047 8.25203C7.05874 8.14394 7.15231 8.05868 7.27979 7.99494L7.12252 7.68041ZM6.69314 8.06425L6.39582 7.87646C6.25232 8.10366 6.18535 8.36114 6.18535 8.63675H6.53701H6.88867C6.88867 8.47864 6.92578 8.35445 6.99047 8.25203L6.69314 8.06425ZM6.53701 8.63675H6.18535C6.18535 8.6368 6.18535 8.63685 6.18535 8.6369C6.18535 8.63695 6.18535 8.637 6.18535 8.63705C6.18535 8.6371 6.18535 8.63715 6.18535 8.63721C6.18535 8.63726 6.18535 8.63731 6.18535 8.63736C6.18535 8.63741 6.18535 8.63746 6.18535 8.63751C6.18535 8.63756 6.18535 8.63761 6.18535 8.63766C6.18535 8.63771 6.18535 8.63776 6.18535 8.63782C6.18535 8.63787 6.18535 8.63792 6.18535 8.63797C6.18535 8.63802 6.18535 8.63807 6.18535 8.63812C6.18535 8.63817 6.18535 8.63822 6.18535 8.63827C6.18535 8.63832 6.18535 8.63837 6.18535 8.63843C6.18535 8.63848 6.18535 8.63853 6.18535 8.63858C6.18535 8.63863 6.18535 8.63868 6.18535 8.63873C6.18535 8.63878 6.18535 8.63883 6.18535 8.63888C6.18535 8.63893 6.18535 8.63898 6.18535 8.63904C6.18535 8.63909 6.18535 8.63914 6.18535 8.63919C6.18535 8.63924 6.18535 8.63929 6.18535 8.63934C6.18535 8.63939 6.18535 8.63944 6.18535 8.63949C6.18535 8.63954 6.18535 8.63959 6.18535 8.63965C6.18535 8.6397 6.18535 8.63975 6.18535 8.6398C6.18535 8.63985 6.18535 8.6399 6.18535 8.63995C6.18535 8.64 6.18535 8.64005 6.18535 8.6401C6.18535 8.64015 6.18535 8.6402 6.18535 8.64026C6.18535 8.64031 6.18535 8.64036 6.18535 8.64041C6.18535 8.64046 6.18535 8.64051 6.18535 8.64056C6.18535 8.64061 6.18535 8.64066 6.18535 8.64071C6.18535 8.64076 6.18535 8.64081 6.18535 8.64087C6.18535 8.64092 6.18535 8.64097 6.18535 8.64102C6.18535 8.64107 6.18535 8.64112 6.18535 8.64117C6.18535 8.64122 6.18535 8.64127 6.18535 8.64132C6.18535 8.64137 6.18535 8.64142 6.18535 8.64148C6.18535 8.64153 6.18535 8.64158 6.18535 8.64163C6.18535 8.64168 6.18535 8.64173 6.18535 8.64178C6.18535 8.64183 6.18535 8.64188 6.18535 8.64193C6.18535 8.64198 6.18535 8.64203 6.18535 8.64208C6.18535 8.64214 6.18535 8.64219 6.18535 8.64224C6.18535 8.64229 6.18535 8.64234 6.18535 8.64239C6.18535 8.64244 6.18535 8.64249 6.18535 8.64254C6.18535 8.64259 6.18535 8.64264 6.18535 8.64269C6.18535 8.64275 6.18535 8.6428 6.18535 8.64285C6.18535 8.6429 6.18535 8.64295 6.18535 8.643C6.18535 8.64305 6.18535 8.6431 6.18535 8.64315C6.18535 8.6432 6.18535 8.64325 6.18535 8.6433C6.18535 8.64336 6.18535 8.64341 6.18535 8.64346C6.18535 8.64351 6.18535 8.64356 6.18535 8.64361C6.18535 8.64366 6.18535 8.64371 6.18535 8.64376C6.18535 8.64381 6.18535 8.64386 6.18535 8.64391C6.18535 8.64397 6.18535 8.64402 6.18535 8.64407C6.18535 8.64412 6.18535 8.64417 6.18535 8.64422C6.18535 8.64427 6.18535 8.64432 6.18535 8.64437C6.18535 8.64442 6.18535 8.64447 6.18535 8.64452C6.18535 8.64458 6.18535 8.64463 6.18535 8.64468C6.18535 8.64473 6.18535 8.64478 6.18535 8.64483C6.18535 8.64488 6.18535 8.64493 6.18535 8.64498C6.18535 8.64503 6.18535 8.64508 6.18535 8.64513C6.18535 8.64519 6.18535 8.64524 6.18535 8.64529C6.18535 8.64534 6.18535 8.64539 6.18535 8.64544C6.18535 8.64549 6.18535 8.64554 6.18535 8.64559C6.18535 8.64564 6.18535 8.64569 6.18535 8.64574C6.18535 8.6458 6.18535 8.64585 6.18535 8.6459C6.18535 8.64595 6.18535 8.646 6.18535 8.64605C6.18535 8.6461 6.18535 8.64615 6.18535 8.6462C6.18535 8.64625 6.18535 8.6463 6.18535 8.64635C6.18535 8.64641 6.18535 8.64646 6.18535 8.64651C6.18535 8.64656 6.18535 8.64661 6.18535 8.64666C6.18535 8.64671 6.18535 8.64676 6.18535 8.64681C6.18535 8.64686 6.18535 8.64691 6.18535 8.64696C6.18535 8.64702 6.18535 8.64707 6.18535 8.64712C6.18535 8.64717 6.18535 8.64722 6.18535 8.64727C6.18535 8.64732 6.18535 8.64737 6.18535 8.64742C6.18535 8.64747 6.18535 8.64752 6.18535 8.64757C6.18535 8.64762 6.18535 8.64768 6.18535 8.64773C6.18535 8.64778 6.18535 8.64783 6.18535 8.64788C6.18535 8.64793 6.18535 8.64798 6.18535 8.64803C6.18535 8.64808 6.18535 8.64813 6.18535 8.64818C6.18535 8.64823 6.18535 8.64829 6.18535 8.64834C6.18535 8.64839 6.18535 8.64844 6.18535 8.64849C6.18535 8.64854 6.18535 8.64859 6.18535 8.64864C6.18535 8.64869 6.18535 8.64874 6.18535 8.64879C6.18535 8.64884 6.18535 8.6489 6.18535 8.64895C6.18535 8.649 6.18535 8.64905 6.18535 8.6491C6.18535 8.64915 6.18535 8.6492 6.18535 8.64925C6.18535 8.6493 6.18535 8.64935 6.18535 8.6494C6.18535 8.64945 6.18535 8.64951 6.18535 8.64956C6.18535 8.64961 6.18535 8.64966 6.18535 8.64971C6.18535 8.64976 6.18535 8.64981 6.18535 8.64986C6.18535 8.64991 6.18535 8.64996 6.18535 8.65001C6.18535 8.65006 6.18535 8.65012 6.18535 8.65017C6.18535 8.65022 6.18535 8.65027 6.18535 8.65032C6.18535 8.65037 6.18535 8.65042 6.18535 8.65047C6.18535 8.65052 6.18535 8.65057 6.18535 8.65062C6.18535 8.65067 6.18535 8.65073 6.18535 8.65078C6.18535 8.65083 6.18535 8.65088 6.18535 8.65093C6.18535 8.65098 6.18535 8.65103 6.18535 8.65108C6.18535 8.65113 6.18535 8.65118 6.18535 8.65123C6.18535 8.65128 6.18535 8.65134 6.18535 8.65139C6.18535 8.65144 6.18535 8.65149 6.18535 8.65154C6.18535 8.65159 6.18535 8.65164 6.18535 8.65169C6.18535 8.65174 6.18535 8.65179 6.18535 8.65184C6.18535 8.65189 6.18535 8.65195 6.18535 8.652C6.18535 8.65205 6.18535 8.6521 6.18535 8.65215C6.18535 8.6522 6.18535 8.65225 6.18535 8.6523C6.18535 8.65235 6.18535 8.6524 6.18535 8.65245C6.18535 8.6525 6.18535 8.65256 6.18535 8.65261C6.18535 8.65266 6.18535 8.65271 6.18535 8.65276C6.18535 8.65281 6.18535 8.65286 6.18535 8.65291C6.18535 8.65296 6.18535 8.65301 6.18535 8.65306C6.18535 8.65311 6.18535 8.65316 6.18535 8.65322C6.18535 8.65327 6.18535 8.65332 6.18535 8.65337C6.18535 8.65342 6.18535 8.65347 6.18535 8.65352C6.18535 8.65357 6.18535 8.65362 6.18535 8.65367C6.18535 8.65372 6.18535 8.65377 6.18535 8.65383C6.18535 8.65388 6.18535 8.65393 6.18535 8.65398C6.18535 8.65403 6.18535 8.65408 6.18535 8.65413C6.18535 8.65418 6.18535 8.65423 6.18535 8.65428C6.18535 8.65433 6.18535 8.65438 6.18535 8.65444C6.18535 8.65449 6.18535 8.65454 6.18535 8.65459C6.18535 8.65464 6.18535 8.65469 6.18535 8.65474C6.18535 8.65479 6.18535 8.65484 6.18535 8.65489C6.18535 8.65494 6.18535 8.65499 6.18535 8.65505C6.18535 8.6551 6.18535 8.65515 6.18535 8.6552C6.18535 8.65525 6.18535 8.6553 6.18535 8.65535C6.18535 8.6554 6.18535 8.65545 6.18535 8.6555C6.18535 8.65555 6.18535 8.6556 6.18535 8.65566C6.18535 8.65571 6.18535 8.65576 6.18535 8.65581C6.18535 8.65586 6.18535 8.65591 6.18535 8.65596C6.18535 8.65601 6.18535 8.65606 6.18535 8.65611C6.18535 8.65616 6.18535 8.65621 6.18535 8.65627C6.18535 8.65632 6.18535 8.65637 6.18535 8.65642C6.18535 8.65647 6.18535 8.65652 6.18535 8.65657C6.18535 8.65662 6.18535 8.65667 6.18535 8.65672C6.18535 8.65677 6.18535 8.65682 6.18535 8.65688C6.18535 8.65693 6.18535 8.65698 6.18535 8.65703C6.18535 8.65708 6.18535 8.65713 6.18535 8.65718C6.18535 8.65723 6.18535 8.65728 6.18535 8.65733C6.18535 8.65738 6.18535 8.65743 6.18535 8.65749C6.18535 8.65754 6.18535 8.65759 6.18535 8.65764C6.18535 8.65769 6.18535 8.65774 6.18535 8.65779C6.18535 8.65784 6.18535 8.65789 6.18535 8.65794C6.18535 8.65799 6.18535 8.65804 6.18535 8.6581C6.18535 8.65815 6.18535 8.6582 6.18535 8.65825C6.18535 8.6583 6.18535 8.65835 6.18535 8.6584C6.18535 8.65845 6.18535 8.6585 6.18535 8.65855C6.18535 8.6586 6.18535 8.65865 6.18535 8.6587C6.18535 8.65876 6.18535 8.65881 6.18535 8.65886C6.18535 8.65891 6.18535 8.65896 6.18535 8.65901C6.18535 8.65906 6.18535 8.65911 6.18535 8.65916C6.18535 8.65921 6.18535 8.65926 6.18535 8.65931C6.18535 8.65937 6.18535 8.65942 6.18535 8.65947C6.18535 8.65952 6.18535 8.65957 6.18535 8.65962C6.18535 8.65967 6.18535 8.65972 6.18535 8.65977C6.18535 8.65982 6.18535 8.65987 6.18535 8.65992C6.18535 8.65998 6.18535 8.66003 6.18535 8.66008C6.18535 8.66013 6.18535 8.66018 6.18535 8.66023C6.18535 8.66028 6.18535 8.66033 6.18535 8.66038C6.18535 8.66043 6.18535 8.66048 6.18535 8.66053C6.18535 8.66059 6.18535 8.66064 6.18535 8.66069C6.18535 8.66074 6.18535 8.66079 6.18535 8.66084C6.18535 8.66089 6.18535 8.66094 6.18535 8.66099C6.18535 8.66104 6.18535 8.66109 6.18535 8.66114C6.18535 8.6612 6.18535 8.66125 6.18535 8.6613C6.18535 8.66135 6.18535 8.6614 6.18535 8.66145C6.18535 8.6615 6.18535 8.66155 6.18535 8.6616C6.18535 8.66165 6.18535 8.6617 6.18535 8.66175C6.18535 8.66181 6.18535 8.66186 6.18535 8.66191C6.18535 8.66196 6.18535 8.66201 6.18535 8.66206C6.18535 8.66211 6.18535 8.66216 6.18535 8.66221C6.18535 8.66226 6.18535 8.66231 6.18535 8.66236C6.18535 8.66242 6.18535 8.66247 6.18535 8.66252C6.18535 8.66257 6.18535 8.66262 6.18535 8.66267C6.18535 8.66272 6.18535 8.66277 6.18535 8.66282C6.18535 8.66287 6.18535 8.66292 6.18535 8.66297C6.18535 8.66303 6.18535 8.66308 6.18535 8.66313C6.18535 8.66318 6.18535 8.66323 6.18535 8.66328C6.18535 8.66333 6.18535 8.66338 6.18535 8.66343C6.18535 8.66348 6.18535 8.66353 6.18535 8.66358C6.18535 8.66364 6.18535 8.66369 6.18535 8.66374C6.18535 8.66379 6.18535 8.66384 6.18535 8.66389C6.18535 8.66394 6.18535 8.66399 6.18535 8.66404C6.18535 8.66409 6.18535 8.66414 6.18535 8.66419C6.18535 8.66424 6.18535 8.6643 6.18535 8.66435C6.18535 8.6644 6.18535 8.66445 6.18535 8.6645C6.18535 8.66455 6.18535 8.6646 6.18535 8.66465C6.18535 8.6647 6.18535 8.66475 6.18535 8.6648C6.18535 8.66485 6.18535 8.66491 6.18535 8.66496C6.18535 8.66501 6.18535 8.66506 6.18535 8.66511C6.18535 8.66516 6.18535 8.66521 6.18535 8.66526C6.18535 8.66531 6.18535 8.66536 6.18535 8.66541C6.18535 8.66546 6.18535 8.66552 6.18535 8.66557C6.18535 8.66562 6.18535 8.66567 6.18535 8.66572C6.18535 8.66577 6.18535 8.66582 6.18535 8.66587C6.18535 8.66592 6.18535 8.66597 6.18535 8.66602C6.18535 8.66607 6.18535 8.66613 6.18535 8.66618C6.18535 8.66623 6.18535 8.66628 6.18535 8.66633C6.18535 8.66638 6.18535 8.66643 6.18535 8.66648C6.18535 8.66653 6.18535 8.66658 6.18535 8.66663C6.18535 8.66668 6.18535 8.66674 6.18535 8.66679C6.18535 8.66684 6.18535 8.66689 6.18535 8.66694C6.18535 8.66699 6.18535 8.66704 6.18535 8.66709C6.18535 8.66714 6.18535 8.66719 6.18535 8.66724C6.18535 8.66729 6.18535 8.66735 6.18535 8.6674C6.18535 8.66745 6.18535 8.6675 6.18535 8.66755C6.18535 8.6676 6.18535 8.66765 6.18535 8.6677C6.18535 8.66775 6.18535 8.6678 6.18535 8.66785C6.18535 8.6679 6.18535 8.66796 6.18535 8.66801C6.18535 8.66806 6.18535 8.66811 6.18535 8.66816C6.18535 8.66821 6.18535 8.66826 6.18535 8.66831C6.18535 8.66836 6.18535 8.66841 6.18535 8.66846C6.18535 8.66851 6.18535 8.66857 6.18535 8.66862C6.18535 8.66867 6.18535 8.66872 6.18535 8.66877C6.18535 8.66882 6.18535 8.66887 6.18535 8.66892C6.18535 8.66897 6.18535 8.66902 6.18535 8.66907C6.18535 8.66912 6.18535 8.66918 6.18535 8.66923C6.18535 8.66928 6.18535 8.66933 6.18535 8.66938C6.18535 8.66943 6.18535 8.66948 6.18535 8.66953C6.18535 8.66958 6.18535 8.66963 6.18535 8.66968C6.18535 8.66973 6.18535 8.66978 6.18535 8.66984C6.18535 8.66989 6.18535 8.66994 6.18535 8.66999C6.18535 8.67004 6.18535 8.67009 6.18535 8.67014C6.18535 8.67019 6.18535 8.67024 6.18535 8.67029C6.18535 8.67034 6.18535 8.67039 6.18535 8.67045C6.18535 8.6705 6.18535 8.67055 6.18535 8.6706C6.18535 8.67065 6.18535 8.6707 6.18535 8.67075C6.18535 8.6708 6.18535 8.67085 6.18535 8.6709C6.18535 8.67095 6.18535 8.671 6.18535 8.67106C6.18535 8.67111 6.18535 8.67116 6.18535 8.67121C6.18535 8.67126 6.18535 8.67131 6.18535 8.67136C6.18535 8.67141 6.18535 8.67146 6.18535 8.67151C6.18535 8.67156 6.18535 8.67161 6.18535 8.67167C6.18535 8.67172 6.18535 8.67177 6.18535 8.67182C6.18535 8.67187 6.18535 8.67192 6.18535 8.67197C6.18535 8.67202 6.18535 8.67207 6.18535 8.67212C6.18535 8.67217 6.18535 8.67222 6.18535 8.67228C6.18535 8.67233 6.18535 8.67238 6.18535 8.67243C6.18535 8.67248 6.18535 8.67253 6.18535 8.67258C6.18535 8.67263 6.18535 8.67268 6.18535 8.67273C6.18535 8.67278 6.18535 8.67283 6.18535 8.67289C6.18535 8.67294 6.18535 8.67299 6.18535 8.67304C6.18535 8.67309 6.18535 8.67314 6.18535 8.67319C6.18535 8.67324 6.18535 8.67329 6.18535 8.67334C6.18535 8.67339 6.18535 8.67344 6.18535 8.6735C6.18535 8.67355 6.18535 8.6736 6.18535 8.67365C6.18535 8.6737 6.18535 8.67375 6.18535 8.6738C6.18535 8.67385 6.18535 8.6739 6.18535 8.67395C6.18535 8.674 6.18535 8.67405 6.18535 8.67411C6.18535 8.67416 6.18535 8.67421 6.18535 8.67426C6.18535 8.67431 6.18535 8.67436 6.18535 8.67441C6.18535 8.67446 6.18535 8.67451 6.18535 8.67456C6.18535 8.67461 6.18535 8.67466 6.18535 8.67472C6.18535 8.67477 6.18535 8.67482 6.18535 8.67487C6.18535 8.67492 6.18535 8.67497 6.18535 8.67502C6.18535 8.67507 6.18535 8.67512 6.18535 8.67517C6.18535 8.67522 6.18535 8.67527 6.18535 8.67532C6.18535 8.67538 6.18535 8.67543 6.18535 8.67548C6.18535 8.67553 6.18535 8.67558 6.18535 8.67563C6.18535 8.67568 6.18535 8.67573 6.18535 8.67578C6.18535 8.67583 6.18535 8.67588 6.18535 8.67593C6.18535 8.67599 6.18535 8.67604 6.18535 8.67609C6.18535 8.67614 6.18535 8.67619 6.18535 8.67624C6.18535 8.67629 6.18535 8.67634 6.18535 8.67639C6.18535 8.67644 6.18535 8.67649 6.18535 8.67654C6.18535 8.6766 6.18535 8.67665 6.18535 8.6767C6.18535 8.67675 6.18535 8.6768 6.18535 8.67685C6.18535 8.6769 6.18535 8.67695 6.18535 8.677C6.18535 8.67705 6.18535 8.6771 6.18535 8.67715C6.18535 8.67721 6.18535 8.67726 6.18535 8.67731C6.18535 8.67736 6.18535 8.67741 6.18535 8.67746C6.18535 8.67751 6.18535 8.67756 6.18535 8.67761C6.18535 8.67766 6.18535 8.67771 6.18535 8.67776C6.18535 8.67782 6.18535 8.67787 6.18535 8.67792C6.18535 8.67797 6.18535 8.67802 6.18535 8.67807C6.18535 8.67812 6.18535 8.67817 6.18535 8.67822C6.18535 8.67827 6.18535 8.67832 6.18535 8.67837C6.18535 8.67843 6.18535 8.67848 6.18535 8.67853C6.18535 8.67858 6.18535 8.67863 6.18535 8.67868C6.18535 8.67873 6.18535 8.67878 6.18535 8.67883C6.18535 8.67888 6.18535 8.67893 6.18535 8.67898C6.18535 8.67904 6.18535 8.67909 6.18535 8.67914C6.18535 8.67919 6.18535 8.67924 6.18535 8.67929C6.18535 8.67934 6.18535 8.67939 6.18535 8.67944C6.18535 8.67949 6.18535 8.67954 6.18535 8.67959C6.18535 8.67965 6.18535 8.6797 6.18535 8.67975C6.18535 8.6798 6.18535 8.67985 6.18535 8.6799C6.18535 8.67995 6.18535 8.68 6.18535 8.68005C6.18535 8.6801 6.18535 8.68015 6.18535 8.6802C6.18535 8.68026 6.18535 8.68031 6.18535 8.68036C6.18535 8.68041 6.18535 8.68046 6.18535 8.68051C6.18535 8.68056 6.18535 8.68061 6.18535 8.68066C6.18535 8.68071 6.18535 8.68076 6.18535 8.68081C6.18535 8.68086 6.18535 8.68092 6.18535 8.68097C6.18535 8.68102 6.18535 8.68107 6.18535 8.68112C6.18535 8.68117 6.18535 8.68122 6.18535 8.68127C6.18535 8.68132 6.18535 8.68137 6.18535 8.68142C6.18535 8.68147 6.18535 8.68153 6.18535 8.68158C6.18535 8.68163 6.18535 8.68168 6.18535 8.68173C6.18535 8.68178 6.18535 8.68183 6.18535 8.68188C6.18535 8.68193 6.18535 8.68198 6.18535 8.68203C6.18535 8.68208 6.18535 8.68214 6.18535 8.68219C6.18535 8.68224 6.18535 8.68229 6.18535 8.68234C6.18535 8.68239 6.18535 8.68244 6.18535 8.68249C6.18535 8.68254 6.18535 8.68259 6.18535 8.68264C6.18535 8.68269 6.18535 8.68275 6.18535 8.6828C6.18535 8.68285 6.18535 8.6829 6.18535 8.68295C6.18535 8.683 6.18535 8.68305 6.18535 8.6831C6.18535 8.68315 6.18535 8.6832 6.18535 8.68325C6.18535 8.6833 6.18535 8.68336 6.18535 8.68341C6.18535 8.68346 6.18535 8.68351 6.18535 8.68356C6.18535 8.68361 6.18535 8.68366 6.18535 8.68371C6.18535 8.68376 6.18535 8.68381 6.18535 8.68386C6.18535 8.68391 6.18535 8.68397 6.18535 8.68402C6.18535 8.68407 6.18535 8.68412 6.18535 8.68417C6.18535 8.68422 6.18535 8.68427 6.18535 8.68432C6.18535 8.68437 6.18535 8.68442 6.18535 8.68447C6.18535 8.68452 6.18535 8.68458 6.18535 8.68463C6.18535 8.68468 6.18535 8.68473 6.18535 8.68478C6.18535 8.68483 6.18535 8.68488 6.18535 8.68493C6.18535 8.68498 6.18535 8.68503 6.18535 8.68508C6.18535 8.68513 6.18535 8.68519 6.18535 8.68524C6.18535 8.68529 6.18535 8.68534 6.18535 8.68539C6.18535 8.68544 6.18535 8.68549 6.18535 8.68554C6.18535 8.68559 6.18535 8.68564 6.18535 8.68569C6.18535 8.68574 6.18535 8.6858 6.18535 8.68585C6.18535 8.6859 6.18535 8.68595 6.18535 8.686C6.18535 8.68605 6.18535 8.6861 6.18535 8.68615C6.18535 8.6862 6.18535 8.68625 6.18535 8.6863C6.18535 8.68635 6.18535 8.6864 6.18535 8.68646C6.18535 8.68651 6.18535 8.68656 6.18535 8.68661C6.18535 8.68666 6.18535 8.68671 6.18535 8.68676C6.18535 8.68681 6.18535 8.68686 6.18535 8.68691C6.18535 8.68696 6.18535 8.68701 6.18535 8.68707C6.18535 8.68712 6.18535 8.68717 6.18535 8.68722C6.18535 8.68727 6.18535 8.68732 6.18535 8.68737C6.18535 8.68742 6.18535 8.68747 6.18535 8.68752C6.18535 8.68757 6.18535 8.68762 6.18535 8.68768C6.18535 8.68773 6.18535 8.68778 6.18535 8.68783C6.18535 8.68788 6.18535 8.68793 6.18535 8.68798C6.18535 8.68803 6.18535 8.68808 6.18535 8.68813C6.18535 8.68818 6.18535 8.68823 6.18535 8.68829C6.18535 8.68834 6.18535 8.68839 6.18535 8.68844C6.18535 8.68849 6.18535 8.68854 6.18535 8.68859C6.18535 8.68864 6.18535 8.68869 6.18535 8.68874C6.18535 8.68879 6.18535 8.68884 6.18535 8.6889C6.18535 8.68895 6.18535 8.689 6.18535 8.68905C6.18535 8.6891 6.18535 8.68915 6.18535 8.6892C6.18535 8.68925 6.18535 8.6893 6.18535 8.68935C6.18535 8.6894 6.18535 8.68945 6.18535 8.68951C6.18535 8.68956 6.18535 8.68961 6.18535 8.68966C6.18535 8.68971 6.18535 8.68976 6.18535 8.68981C6.18535 8.68986 6.18535 8.68991 6.18535 8.68996C6.18535 8.69001 6.18535 8.69006 6.18535 8.69012C6.18535 8.69017 6.18535 8.69022 6.18535 8.69027C6.18535 8.69032 6.18535 8.69037 6.18535 8.69042C6.18535 8.69047 6.18535 8.69052 6.18535 8.69057C6.18535 8.69062 6.18535 8.69067 6.18535 8.69073C6.18535 8.69078 6.18535 8.69083 6.18535 8.69088C6.18535 8.69093 6.18535 8.69098 6.18535 8.69103C6.18535 8.69108 6.18535 8.69113 6.18535 8.69118C6.18535 8.69123 6.18535 8.69128 6.18535 8.69134C6.18535 8.69139 6.18535 8.69144 6.18535 8.69149C6.18535 8.69154 6.18535 8.69159 6.18535 8.69164C6.18535 8.69169 6.18535 8.69174 6.18535 8.69179C6.18535 8.69184 6.18535 8.69189 6.18535 8.69195C6.18535 8.692 6.18535 8.69205 6.18535 8.6921C6.18535 8.69215 6.18535 8.6922 6.18535 8.69225C6.18535 8.6923 6.18535 8.69235 6.18535 8.6924C6.18535 8.69245 6.18535 8.6925 6.18535 8.69255C6.18535 8.69261 6.18535 8.69266 6.18535 8.69271C6.18535 8.69276 6.18535 8.69281 6.18535 8.69286C6.18535 8.69291 6.18535 8.69296 6.18535 8.69301C6.18535 8.69306 6.18535 8.69311 6.18535 8.69316C6.18535 8.69322 6.18535 8.69327 6.18535 8.69332C6.18535 8.69337 6.18535 8.69342 6.18535 8.69347C6.18535 8.69352 6.18535 8.69357 6.18535 8.69362C6.18535 8.69367 6.18535 8.69372 6.18535 8.69377C6.18535 8.69383 6.18535 8.69388 6.18535 8.69393C6.18535 8.69398 6.18535 8.69403 6.18535 8.69408C6.18535 8.69413 6.18535 8.69418 6.18535 8.69423C6.18535 8.69428 6.18535 8.69433 6.18535 8.69438C6.18535 8.69444 6.18535 8.69449 6.18535 8.69454C6.18535 8.69459 6.18535 8.69464 6.18535 8.69469C6.18535 8.69474 6.18535 8.69479 6.18535 8.69484C6.18535 8.69489 6.18535 8.69494 6.18535 8.69499C6.18535 8.69505 6.18535 8.6951 6.18535 8.69515C6.18535 8.6952 6.18535 8.69525 6.18535 8.6953C6.18535 8.69535 6.18535 8.6954 6.18535 8.69545C6.18535 8.6955 6.18535 8.69555 6.18535 8.6956C6.18535 8.69566 6.18535 8.69571 6.18535 8.69576C6.18535 8.69581 6.18535 8.69586 6.18535 8.69591C6.18535 8.69596 6.18535 8.69601 6.18535 8.69606C6.18535 8.69611 6.18535 8.69616 6.18535 8.69621C6.18535 8.69627 6.18535 8.69632 6.18535 8.69637C6.18535 8.69642 6.18535 8.69647 6.18535 8.69652C6.18535 8.69657 6.18535 8.69662 6.18535 8.69667C6.18535 8.69672 6.18535 8.69677 6.18535 8.69682C6.18535 8.69688 6.18535 8.69693 6.18535 8.69698C6.18535 8.69703 6.18535 8.69708 6.18535 8.69713C6.18535 8.69718 6.18535 8.69723 6.18535 8.69728C6.18535 8.69733 6.18535 8.69738 6.18535 8.69743C6.18535 8.69749 6.18535 8.69754 6.18535 8.69759C6.18535 8.69764 6.18535 8.69769 6.18535 8.69774C6.18535 8.69779 6.18535 8.69784 6.18535 8.69789C6.18535 8.69794 6.18535 8.69799 6.18535 8.69804C6.18535 8.69809 6.18535 8.69815 6.18535 8.6982C6.18535 8.69825 6.18535 8.6983 6.18535 8.69835C6.18535 8.6984 6.18535 8.69845 6.18535 8.6985C6.18535 8.69855 6.18535 8.6986 6.18535 8.69865C6.18535 8.6987 6.18535 8.69876 6.18535 8.69881C6.18535 8.69886 6.18535 8.69891 6.18535 8.69896C6.18535 8.69901 6.18535 8.69906 6.18535 8.69911C6.18535 8.69916 6.18535 8.69921 6.18535 8.69926C6.18535 8.69931 6.18535 8.69937 6.18535 8.69942C6.18535 8.69947 6.18535 8.69952 6.18535 8.69957C6.18535 8.69962 6.18535 8.69967 6.18535 8.69972C6.18535 8.69977 6.18535 8.69982 6.18535 8.69987C6.18535 8.69992 6.18535 8.69998 6.18535 8.70003C6.18535 8.70008 6.18535 8.70013 6.18535 8.70018C6.18535 8.70023 6.18535 8.70028 6.18535 8.70033C6.18535 8.70038 6.18535 8.70043 6.18535 8.70048C6.18535 8.70053 6.18535 8.70059 6.18535 8.70064C6.18535 8.70069 6.18535 8.70074 6.18535 8.70079C6.18535 8.70084 6.18535 8.70089 6.18535 8.70094C6.18535 8.70099 6.18535 8.70104 6.18535 8.70109C6.18535 8.70114 6.18535 8.7012 6.18535 8.70125C6.18535 8.7013 6.18535 8.70135 6.18535 8.7014C6.18535 8.70145 6.18535 8.7015 6.18535 8.70155C6.18535 8.7016 6.18535 8.70165 6.18535 8.7017C6.18535 8.70175 6.18535 8.70181 6.18535 8.70186C6.18535 8.70191 6.18535 8.70196 6.18535 8.70201C6.18535 8.70206 6.18535 8.70211 6.18535 8.70216C6.18535 8.70221 6.18535 8.70226 6.18535 8.70231C6.18535 8.70236 6.18535 8.70242 6.18535 8.70247C6.18535 8.70252 6.18535 8.70257 6.18535 8.70262C6.18535 8.70267 6.18535 8.70272 6.18535 8.70277C6.18535 8.70282 6.18535 8.70287 6.18535 8.70292C6.18535 8.70297 6.18535 8.70303 6.18535 8.70308C6.18535 8.70313 6.18535 8.70318 6.18535 8.70323C6.18535 8.70328 6.18535 8.70333 6.18535 8.70338C6.18535 8.70343 6.18535 8.70348 6.18535 8.70353C6.18535 8.70358 6.18535 8.70363 6.18535 8.70369C6.18535 8.70374 6.18535 8.70379 6.18535 8.70384C6.18535 8.70389 6.18535 8.70394 6.18535 8.70399C6.18535 8.70404 6.18535 8.70409 6.18535 8.70414C6.18535 8.70419 6.18535 8.70424 6.18535 8.7043C6.18535 8.70435 6.18535 8.7044 6.18535 8.70445C6.18535 8.7045 6.18535 8.70455 6.18535 8.7046C6.18535 8.70465 6.18535 8.7047 6.18535 8.70475C6.18535 8.7048 6.18535 8.70485 6.18535 8.70491C6.18535 8.70496 6.18535 8.70501 6.18535 8.70506C6.18535 8.70511 6.18535 8.70516 6.18535 8.70521C6.18535 8.70526 6.18535 8.70531 6.18535 8.70536C6.18535 8.70541 6.18535 8.70546 6.18535 8.70552C6.18535 8.70557 6.18535 8.70562 6.18535 8.70567C6.18535 8.70572 6.18535 8.70577 6.18535 8.70582C6.18535 8.70587 6.18535 8.70592 6.18535 8.70597C6.18535 8.70602 6.18535 8.70607 6.18535 8.70613C6.18535 8.70618 6.18535 8.70623 6.18535 8.70628C6.18535 8.70633 6.18535 8.70638 6.18535 8.70643C6.18535 8.70648 6.18535 8.70653 6.18535 8.70658C6.18535 8.70663 6.18535 8.70668 6.18535 8.70674C6.18535 8.70679 6.18535 8.70684 6.18535 8.70689C6.18535 8.70694 6.18535 8.70699 6.18535 8.70704C6.18535 8.70709 6.18535 8.70714 6.18535 8.70719C6.18535 8.70724 6.18535 8.70729 6.18535 8.70735C6.18535 8.7074 6.18535 8.70745 6.18535 8.7075C6.18535 8.70755 6.18535 8.7076 6.18535 8.70765C6.18535 8.7077 6.18535 8.70775 6.18535 8.7078C6.18535 8.70785 6.18535 8.7079 6.18535 8.70796C6.18535 8.70801 6.18535 8.70806 6.18535 8.70811C6.18535 8.70816 6.18535 8.70821 6.18535 8.70826C6.18535 8.70831 6.18535 8.70836 6.18535 8.70841C6.18535 8.70846 6.18535 8.70851 6.18535 8.70857C6.18535 8.70862 6.18535 8.70867 6.18535 8.70872C6.18535 8.70877 6.18535 8.70882 6.18535 8.70887C6.18535 8.70892 6.18535 8.70897 6.18535 8.70902C6.18535 8.70907 6.18535 8.70912 6.18535 8.70917C6.18535 8.70923 6.18535 8.70928 6.18535 8.70933C6.18535 8.70938 6.18535 8.70943 6.18535 8.70948C6.18535 8.70953 6.18535 8.70958 6.18535 8.70963C6.18535 8.70968 6.18535 8.70973 6.18535 8.70978C6.18535 8.70984 6.18535 8.70989 6.18535 8.70994C6.18535 8.70999 6.18535 8.71004 6.18535 8.71009C6.18535 8.71014 6.18535 8.71019 6.18535 8.71024C6.18535 8.71029 6.18535 8.71034 6.18535 8.71039C6.18535 8.71045 6.18535 8.7105 6.18535 8.71055C6.18535 8.7106 6.18535 8.71065 6.18535 8.7107C6.18535 8.71075 6.18535 8.7108 6.18535 8.71085C6.18535 8.7109 6.18535 8.71095 6.18535 8.711C6.18535 8.71106 6.18535 8.71111 6.18535 8.71116C6.18535 8.71121 6.18535 8.71126 6.18535 8.71131C6.18535 8.71136 6.18535 8.71141 6.18535 8.71146C6.18535 8.71151 6.18535 8.71156 6.18535 8.71161C6.18535 8.71167 6.18535 8.71172 6.18535 8.71177C6.18535 8.71182 6.18535 8.71187 6.18535 8.71192C6.18535 8.71197 6.18535 8.71202 6.18535 8.71207C6.18535 8.71212 6.18535 8.71217 6.18535 8.71222C6.18535 8.71228 6.18535 8.71233 6.18535 8.71238C6.18535 8.71243 6.18535 8.71248 6.18535 8.71253C6.18535 8.71258 6.18535 8.71263 6.18535 8.71268C6.18535 8.71273 6.18535 8.71278 6.18535 8.71283C6.18535 8.71289 6.18535 8.71294 6.18535 8.71299C6.18535 8.71304 6.18535 8.71309 6.18535 8.71314C6.18535 8.71319 6.18535 8.71324 6.18535 8.71329C6.18535 8.71334 6.18535 8.71339 6.18535 8.71344C6.18535 8.7135 6.18535 8.71355 6.18535 8.7136C6.18535 8.71365 6.18535 8.7137 6.18535 8.71375C6.18535 8.7138 6.18535 8.71385 6.18535 8.7139C6.18535 8.71395 6.18535 8.714 6.18535 8.71405C6.18535 8.71411 6.18535 8.71416 6.18535 8.71421C6.18535 8.71426 6.18535 8.71431 6.18535 8.71436C6.18535 8.71441 6.18535 8.71446 6.18535 8.71451C6.18535 8.71456 6.18535 8.71461 6.18535 8.71466C6.18535 8.71471 6.18535 8.71477 6.18535 8.71482H6.53701H6.88867C6.88867 8.71477 6.88867 8.71471 6.88867 8.71466C6.88867 8.71461 6.88867 8.71456 6.88867 8.71451C6.88867 8.71446 6.88867 8.71441 6.88867 8.71436C6.88867 8.71431 6.88867 8.71426 6.88867 8.71421C6.88867 8.71416 6.88867 8.71411 6.88867 8.71405C6.88867 8.714 6.88867 8.71395 6.88867 8.7139C6.88867 8.71385 6.88867 8.7138 6.88867 8.71375C6.88867 8.7137 6.88867 8.71365 6.88867 8.7136C6.88867 8.71355 6.88867 8.7135 6.88867 8.71344C6.88867 8.71339 6.88867 8.71334 6.88867 8.71329C6.88867 8.71324 6.88867 8.71319 6.88867 8.71314C6.88867 8.71309 6.88867 8.71304 6.88867 8.71299C6.88867 8.71294 6.88867 8.71289 6.88867 8.71283C6.88867 8.71278 6.88867 8.71273 6.88867 8.71268C6.88867 8.71263 6.88867 8.71258 6.88867 8.71253C6.88867 8.71248 6.88867 8.71243 6.88867 8.71238C6.88867 8.71233 6.88867 8.71228 6.88867 8.71222C6.88867 8.71217 6.88867 8.71212 6.88867 8.71207C6.88867 8.71202 6.88867 8.71197 6.88867 8.71192C6.88867 8.71187 6.88867 8.71182 6.88867 8.71177C6.88867 8.71172 6.88867 8.71167 6.88867 8.71161C6.88867 8.71156 6.88867 8.71151 6.88867 8.71146C6.88867 8.71141 6.88867 8.71136 6.88867 8.71131C6.88867 8.71126 6.88867 8.71121 6.88867 8.71116C6.88867 8.71111 6.88867 8.71106 6.88867 8.711C6.88867 8.71095 6.88867 8.7109 6.88867 8.71085C6.88867 8.7108 6.88867 8.71075 6.88867 8.7107C6.88867 8.71065 6.88867 8.7106 6.88867 8.71055C6.88867 8.7105 6.88867 8.71045 6.88867 8.71039C6.88867 8.71034 6.88867 8.71029 6.88867 8.71024C6.88867 8.71019 6.88867 8.71014 6.88867 8.71009C6.88867 8.71004 6.88867 8.70999 6.88867 8.70994C6.88867 8.70989 6.88867 8.70984 6.88867 8.70978C6.88867 8.70973 6.88867 8.70968 6.88867 8.70963C6.88867 8.70958 6.88867 8.70953 6.88867 8.70948C6.88867 8.70943 6.88867 8.70938 6.88867 8.70933C6.88867 8.70928 6.88867 8.70923 6.88867 8.70917C6.88867 8.70912 6.88867 8.70907 6.88867 8.70902C6.88867 8.70897 6.88867 8.70892 6.88867 8.70887C6.88867 8.70882 6.88867 8.70877 6.88867 8.70872C6.88867 8.70867 6.88867 8.70862 6.88867 8.70857C6.88867 8.70851 6.88867 8.70846 6.88867 8.70841C6.88867 8.70836 6.88867 8.70831 6.88867 8.70826C6.88867 8.70821 6.88867 8.70816 6.88867 8.70811C6.88867 8.70806 6.88867 8.70801 6.88867 8.70796C6.88867 8.7079 6.88867 8.70785 6.88867 8.7078C6.88867 8.70775 6.88867 8.7077 6.88867 8.70765C6.88867 8.7076 6.88867 8.70755 6.88867 8.7075C6.88867 8.70745 6.88867 8.7074 6.88867 8.70735C6.88867 8.70729 6.88867 8.70724 6.88867 8.70719C6.88867 8.70714 6.88867 8.70709 6.88867 8.70704C6.88867 8.70699 6.88867 8.70694 6.88867 8.70689C6.88867 8.70684 6.88867 8.70679 6.88867 8.70674C6.88867 8.70668 6.88867 8.70663 6.88867 8.70658C6.88867 8.70653 6.88867 8.70648 6.88867 8.70643C6.88867 8.70638 6.88867 8.70633 6.88867 8.70628C6.88867 8.70623 6.88867 8.70618 6.88867 8.70613C6.88867 8.70607 6.88867 8.70602 6.88867 8.70597C6.88867 8.70592 6.88867 8.70587 6.88867 8.70582C6.88867 8.70577 6.88867 8.70572 6.88867 8.70567C6.88867 8.70562 6.88867 8.70557 6.88867 8.70552C6.88867 8.70546 6.88867 8.70541 6.88867 8.70536C6.88867 8.70531 6.88867 8.70526 6.88867 8.70521C6.88867 8.70516 6.88867 8.70511 6.88867 8.70506C6.88867 8.70501 6.88867 8.70496 6.88867 8.70491C6.88867 8.70485 6.88867 8.7048 6.88867 8.70475C6.88867 8.7047 6.88867 8.70465 6.88867 8.7046C6.88867 8.70455 6.88867 8.7045 6.88867 8.70445C6.88867 8.7044 6.88867 8.70435 6.88867 8.7043C6.88867 8.70424 6.88867 8.70419 6.88867 8.70414C6.88867 8.70409 6.88867 8.70404 6.88867 8.70399C6.88867 8.70394 6.88867 8.70389 6.88867 8.70384C6.88867 8.70379 6.88867 8.70374 6.88867 8.70369C6.88867 8.70363 6.88867 8.70358 6.88867 8.70353C6.88867 8.70348 6.88867 8.70343 6.88867 8.70338C6.88867 8.70333 6.88867 8.70328 6.88867 8.70323C6.88867 8.70318 6.88867 8.70313 6.88867 8.70308C6.88867 8.70303 6.88867 8.70297 6.88867 8.70292C6.88867 8.70287 6.88867 8.70282 6.88867 8.70277C6.88867 8.70272 6.88867 8.70267 6.88867 8.70262C6.88867 8.70257 6.88867 8.70252 6.88867 8.70247C6.88867 8.70242 6.88867 8.70236 6.88867 8.70231C6.88867 8.70226 6.88867 8.70221 6.88867 8.70216C6.88867 8.70211 6.88867 8.70206 6.88867 8.70201C6.88867 8.70196 6.88867 8.70191 6.88867 8.70186C6.88867 8.70181 6.88867 8.70175 6.88867 8.7017C6.88867 8.70165 6.88867 8.7016 6.88867 8.70155C6.88867 8.7015 6.88867 8.70145 6.88867 8.7014C6.88867 8.70135 6.88867 8.7013 6.88867 8.70125C6.88867 8.7012 6.88867 8.70114 6.88867 8.70109C6.88867 8.70104 6.88867 8.70099 6.88867 8.70094C6.88867 8.70089 6.88867 8.70084 6.88867 8.70079C6.88867 8.70074 6.88867 8.70069 6.88867 8.70064C6.88867 8.70059 6.88867 8.70053 6.88867 8.70048C6.88867 8.70043 6.88867 8.70038 6.88867 8.70033C6.88867 8.70028 6.88867 8.70023 6.88867 8.70018C6.88867 8.70013 6.88867 8.70008 6.88867 8.70003C6.88867 8.69998 6.88867 8.69992 6.88867 8.69987C6.88867 8.69982 6.88867 8.69977 6.88867 8.69972C6.88867 8.69967 6.88867 8.69962 6.88867 8.69957C6.88867 8.69952 6.88867 8.69947 6.88867 8.69942C6.88867 8.69937 6.88867 8.69931 6.88867 8.69926C6.88867 8.69921 6.88867 8.69916 6.88867 8.69911C6.88867 8.69906 6.88867 8.69901 6.88867 8.69896C6.88867 8.69891 6.88867 8.69886 6.88867 8.69881C6.88867 8.69876 6.88867 8.6987 6.88867 8.69865C6.88867 8.6986 6.88867 8.69855 6.88867 8.6985C6.88867 8.69845 6.88867 8.6984 6.88867 8.69835C6.88867 8.6983 6.88867 8.69825 6.88867 8.6982C6.88867 8.69815 6.88867 8.69809 6.88867 8.69804C6.88867 8.69799 6.88867 8.69794 6.88867 8.69789C6.88867 8.69784 6.88867 8.69779 6.88867 8.69774C6.88867 8.69769 6.88867 8.69764 6.88867 8.69759C6.88867 8.69754 6.88867 8.69749 6.88867 8.69743C6.88867 8.69738 6.88867 8.69733 6.88867 8.69728C6.88867 8.69723 6.88867 8.69718 6.88867 8.69713C6.88867 8.69708 6.88867 8.69703 6.88867 8.69698C6.88867 8.69693 6.88867 8.69688 6.88867 8.69682C6.88867 8.69677 6.88867 8.69672 6.88867 8.69667C6.88867 8.69662 6.88867 8.69657 6.88867 8.69652C6.88867 8.69647 6.88867 8.69642 6.88867 8.69637C6.88867 8.69632 6.88867 8.69627 6.88867 8.69621C6.88867 8.69616 6.88867 8.69611 6.88867 8.69606C6.88867 8.69601 6.88867 8.69596 6.88867 8.69591C6.88867 8.69586 6.88867 8.69581 6.88867 8.69576C6.88867 8.69571 6.88867 8.69566 6.88867 8.6956C6.88867 8.69555 6.88867 8.6955 6.88867 8.69545C6.88867 8.6954 6.88867 8.69535 6.88867 8.6953C6.88867 8.69525 6.88867 8.6952 6.88867 8.69515C6.88867 8.6951 6.88867 8.69505 6.88867 8.69499C6.88867 8.69494 6.88867 8.69489 6.88867 8.69484C6.88867 8.69479 6.88867 8.69474 6.88867 8.69469C6.88867 8.69464 6.88867 8.69459 6.88867 8.69454C6.88867 8.69449 6.88867 8.69444 6.88867 8.69438C6.88867 8.69433 6.88867 8.69428 6.88867 8.69423C6.88867 8.69418 6.88867 8.69413 6.88867 8.69408C6.88867 8.69403 6.88867 8.69398 6.88867 8.69393C6.88867 8.69388 6.88867 8.69383 6.88867 8.69377C6.88867 8.69372 6.88867 8.69367 6.88867 8.69362C6.88867 8.69357 6.88867 8.69352 6.88867 8.69347C6.88867 8.69342 6.88867 8.69337 6.88867 8.69332C6.88867 8.69327 6.88867 8.69322 6.88867 8.69316C6.88867 8.69311 6.88867 8.69306 6.88867 8.69301C6.88867 8.69296 6.88867 8.69291 6.88867 8.69286C6.88867 8.69281 6.88867 8.69276 6.88867 8.69271C6.88867 8.69266 6.88867 8.69261 6.88867 8.69255C6.88867 8.6925 6.88867 8.69245 6.88867 8.6924C6.88867 8.69235 6.88867 8.6923 6.88867 8.69225C6.88867 8.6922 6.88867 8.69215 6.88867 8.6921C6.88867 8.69205 6.88867 8.692 6.88867 8.69195C6.88867 8.69189 6.88867 8.69184 6.88867 8.69179C6.88867 8.69174 6.88867 8.69169 6.88867 8.69164C6.88867 8.69159 6.88867 8.69154 6.88867 8.69149C6.88867 8.69144 6.88867 8.69139 6.88867 8.69134C6.88867 8.69128 6.88867 8.69123 6.88867 8.69118C6.88867 8.69113 6.88867 8.69108 6.88867 8.69103C6.88867 8.69098 6.88867 8.69093 6.88867 8.69088C6.88867 8.69083 6.88867 8.69078 6.88867 8.69073C6.88867 8.69067 6.88867 8.69062 6.88867 8.69057C6.88867 8.69052 6.88867 8.69047 6.88867 8.69042C6.88867 8.69037 6.88867 8.69032 6.88867 8.69027C6.88867 8.69022 6.88867 8.69017 6.88867 8.69012C6.88867 8.69006 6.88867 8.69001 6.88867 8.68996C6.88867 8.68991 6.88867 8.68986 6.88867 8.68981C6.88867 8.68976 6.88867 8.68971 6.88867 8.68966C6.88867 8.68961 6.88867 8.68956 6.88867 8.68951C6.88867 8.68945 6.88867 8.6894 6.88867 8.68935C6.88867 8.6893 6.88867 8.68925 6.88867 8.6892C6.88867 8.68915 6.88867 8.6891 6.88867 8.68905C6.88867 8.689 6.88867 8.68895 6.88867 8.6889C6.88867 8.68884 6.88867 8.68879 6.88867 8.68874C6.88867 8.68869 6.88867 8.68864 6.88867 8.68859C6.88867 8.68854 6.88867 8.68849 6.88867 8.68844C6.88867 8.68839 6.88867 8.68834 6.88867 8.68829C6.88867 8.68823 6.88867 8.68818 6.88867 8.68813C6.88867 8.68808 6.88867 8.68803 6.88867 8.68798C6.88867 8.68793 6.88867 8.68788 6.88867 8.68783C6.88867 8.68778 6.88867 8.68773 6.88867 8.68768C6.88867 8.68762 6.88867 8.68757 6.88867 8.68752C6.88867 8.68747 6.88867 8.68742 6.88867 8.68737C6.88867 8.68732 6.88867 8.68727 6.88867 8.68722C6.88867 8.68717 6.88867 8.68712 6.88867 8.68707C6.88867 8.68701 6.88867 8.68696 6.88867 8.68691C6.88867 8.68686 6.88867 8.68681 6.88867 8.68676C6.88867 8.68671 6.88867 8.68666 6.88867 8.68661C6.88867 8.68656 6.88867 8.68651 6.88867 8.68646C6.88867 8.6864 6.88867 8.68635 6.88867 8.6863C6.88867 8.68625 6.88867 8.6862 6.88867 8.68615C6.88867 8.6861 6.88867 8.68605 6.88867 8.686C6.88867 8.68595 6.88867 8.6859 6.88867 8.68585C6.88867 8.6858 6.88867 8.68574 6.88867 8.68569C6.88867 8.68564 6.88867 8.68559 6.88867 8.68554C6.88867 8.68549 6.88867 8.68544 6.88867 8.68539C6.88867 8.68534 6.88867 8.68529 6.88867 8.68524C6.88867 8.68519 6.88867 8.68513 6.88867 8.68508C6.88867 8.68503 6.88867 8.68498 6.88867 8.68493C6.88867 8.68488 6.88867 8.68483 6.88867 8.68478C6.88867 8.68473 6.88867 8.68468 6.88867 8.68463C6.88867 8.68458 6.88867 8.68452 6.88867 8.68447C6.88867 8.68442 6.88867 8.68437 6.88867 8.68432C6.88867 8.68427 6.88867 8.68422 6.88867 8.68417C6.88867 8.68412 6.88867 8.68407 6.88867 8.68402C6.88867 8.68397 6.88867 8.68391 6.88867 8.68386C6.88867 8.68381 6.88867 8.68376 6.88867 8.68371C6.88867 8.68366 6.88867 8.68361 6.88867 8.68356C6.88867 8.68351 6.88867 8.68346 6.88867 8.68341C6.88867 8.68336 6.88867 8.6833 6.88867 8.68325C6.88867 8.6832 6.88867 8.68315 6.88867 8.6831C6.88867 8.68305 6.88867 8.683 6.88867 8.68295C6.88867 8.6829 6.88867 8.68285 6.88867 8.6828C6.88867 8.68275 6.88867 8.68269 6.88867 8.68264C6.88867 8.68259 6.88867 8.68254 6.88867 8.68249C6.88867 8.68244 6.88867 8.68239 6.88867 8.68234C6.88867 8.68229 6.88867 8.68224 6.88867 8.68219C6.88867 8.68214 6.88867 8.68208 6.88867 8.68203C6.88867 8.68198 6.88867 8.68193 6.88867 8.68188C6.88867 8.68183 6.88867 8.68178 6.88867 8.68173C6.88867 8.68168 6.88867 8.68163 6.88867 8.68158C6.88867 8.68153 6.88867 8.68147 6.88867 8.68142C6.88867 8.68137 6.88867 8.68132 6.88867 8.68127C6.88867 8.68122 6.88867 8.68117 6.88867 8.68112C6.88867 8.68107 6.88867 8.68102 6.88867 8.68097C6.88867 8.68092 6.88867 8.68086 6.88867 8.68081C6.88867 8.68076 6.88867 8.68071 6.88867 8.68066C6.88867 8.68061 6.88867 8.68056 6.88867 8.68051C6.88867 8.68046 6.88867 8.68041 6.88867 8.68036C6.88867 8.68031 6.88867 8.68026 6.88867 8.6802C6.88867 8.68015 6.88867 8.6801 6.88867 8.68005C6.88867 8.68 6.88867 8.67995 6.88867 8.6799C6.88867 8.67985 6.88867 8.6798 6.88867 8.67975C6.88867 8.6797 6.88867 8.67965 6.88867 8.67959C6.88867 8.67954 6.88867 8.67949 6.88867 8.67944C6.88867 8.67939 6.88867 8.67934 6.88867 8.67929C6.88867 8.67924 6.88867 8.67919 6.88867 8.67914C6.88867 8.67909 6.88867 8.67904 6.88867 8.67898C6.88867 8.67893 6.88867 8.67888 6.88867 8.67883C6.88867 8.67878 6.88867 8.67873 6.88867 8.67868C6.88867 8.67863 6.88867 8.67858 6.88867 8.67853C6.88867 8.67848 6.88867 8.67843 6.88867 8.67837C6.88867 8.67832 6.88867 8.67827 6.88867 8.67822C6.88867 8.67817 6.88867 8.67812 6.88867 8.67807C6.88867 8.67802 6.88867 8.67797 6.88867 8.67792C6.88867 8.67787 6.88867 8.67782 6.88867 8.67776C6.88867 8.67771 6.88867 8.67766 6.88867 8.67761C6.88867 8.67756 6.88867 8.67751 6.88867 8.67746C6.88867 8.67741 6.88867 8.67736 6.88867 8.67731C6.88867 8.67726 6.88867 8.67721 6.88867 8.67715C6.88867 8.6771 6.88867 8.67705 6.88867 8.677C6.88867 8.67695 6.88867 8.6769 6.88867 8.67685C6.88867 8.6768 6.88867 8.67675 6.88867 8.6767C6.88867 8.67665 6.88867 8.6766 6.88867 8.67654C6.88867 8.67649 6.88867 8.67644 6.88867 8.67639C6.88867 8.67634 6.88867 8.67629 6.88867 8.67624C6.88867 8.67619 6.88867 8.67614 6.88867 8.67609C6.88867 8.67604 6.88867 8.67599 6.88867 8.67593C6.88867 8.67588 6.88867 8.67583 6.88867 8.67578C6.88867 8.67573 6.88867 8.67568 6.88867 8.67563C6.88867 8.67558 6.88867 8.67553 6.88867 8.67548C6.88867 8.67543 6.88867 8.67538 6.88867 8.67532C6.88867 8.67527 6.88867 8.67522 6.88867 8.67517C6.88867 8.67512 6.88867 8.67507 6.88867 8.67502C6.88867 8.67497 6.88867 8.67492 6.88867 8.67487C6.88867 8.67482 6.88867 8.67477 6.88867 8.67472C6.88867 8.67466 6.88867 8.67461 6.88867 8.67456C6.88867 8.67451 6.88867 8.67446 6.88867 8.67441C6.88867 8.67436 6.88867 8.67431 6.88867 8.67426C6.88867 8.67421 6.88867 8.67416 6.88867 8.67411C6.88867 8.67405 6.88867 8.674 6.88867 8.67395C6.88867 8.6739 6.88867 8.67385 6.88867 8.6738C6.88867 8.67375 6.88867 8.6737 6.88867 8.67365C6.88867 8.6736 6.88867 8.67355 6.88867 8.6735C6.88867 8.67344 6.88867 8.67339 6.88867 8.67334C6.88867 8.67329 6.88867 8.67324 6.88867 8.67319C6.88867 8.67314 6.88867 8.67309 6.88867 8.67304C6.88867 8.67299 6.88867 8.67294 6.88867 8.67289C6.88867 8.67283 6.88867 8.67278 6.88867 8.67273C6.88867 8.67268 6.88867 8.67263 6.88867 8.67258C6.88867 8.67253 6.88867 8.67248 6.88867 8.67243C6.88867 8.67238 6.88867 8.67233 6.88867 8.67228C6.88867 8.67222 6.88867 8.67217 6.88867 8.67212C6.88867 8.67207 6.88867 8.67202 6.88867 8.67197C6.88867 8.67192 6.88867 8.67187 6.88867 8.67182C6.88867 8.67177 6.88867 8.67172 6.88867 8.67167C6.88867 8.67161 6.88867 8.67156 6.88867 8.67151C6.88867 8.67146 6.88867 8.67141 6.88867 8.67136C6.88867 8.67131 6.88867 8.67126 6.88867 8.67121C6.88867 8.67116 6.88867 8.67111 6.88867 8.67106C6.88867 8.671 6.88867 8.67095 6.88867 8.6709C6.88867 8.67085 6.88867 8.6708 6.88867 8.67075C6.88867 8.6707 6.88867 8.67065 6.88867 8.6706C6.88867 8.67055 6.88867 8.6705 6.88867 8.67045C6.88867 8.67039 6.88867 8.67034 6.88867 8.67029C6.88867 8.67024 6.88867 8.67019 6.88867 8.67014C6.88867 8.67009 6.88867 8.67004 6.88867 8.66999C6.88867 8.66994 6.88867 8.66989 6.88867 8.66984C6.88867 8.66978 6.88867 8.66973 6.88867 8.66968C6.88867 8.66963 6.88867 8.66958 6.88867 8.66953C6.88867 8.66948 6.88867 8.66943 6.88867 8.66938C6.88867 8.66933 6.88867 8.66928 6.88867 8.66923C6.88867 8.66918 6.88867 8.66912 6.88867 8.66907C6.88867 8.66902 6.88867 8.66897 6.88867 8.66892C6.88867 8.66887 6.88867 8.66882 6.88867 8.66877C6.88867 8.66872 6.88867 8.66867 6.88867 8.66862C6.88867 8.66857 6.88867 8.66851 6.88867 8.66846C6.88867 8.66841 6.88867 8.66836 6.88867 8.66831C6.88867 8.66826 6.88867 8.66821 6.88867 8.66816C6.88867 8.66811 6.88867 8.66806 6.88867 8.66801C6.88867 8.66796 6.88867 8.6679 6.88867 8.66785C6.88867 8.6678 6.88867 8.66775 6.88867 8.6677C6.88867 8.66765 6.88867 8.6676 6.88867 8.66755C6.88867 8.6675 6.88867 8.66745 6.88867 8.6674C6.88867 8.66735 6.88867 8.66729 6.88867 8.66724C6.88867 8.66719 6.88867 8.66714 6.88867 8.66709C6.88867 8.66704 6.88867 8.66699 6.88867 8.66694C6.88867 8.66689 6.88867 8.66684 6.88867 8.66679C6.88867 8.66674 6.88867 8.66668 6.88867 8.66663C6.88867 8.66658 6.88867 8.66653 6.88867 8.66648C6.88867 8.66643 6.88867 8.66638 6.88867 8.66633C6.88867 8.66628 6.88867 8.66623 6.88867 8.66618C6.88867 8.66613 6.88867 8.66607 6.88867 8.66602C6.88867 8.66597 6.88867 8.66592 6.88867 8.66587C6.88867 8.66582 6.88867 8.66577 6.88867 8.66572C6.88867 8.66567 6.88867 8.66562 6.88867 8.66557C6.88867 8.66552 6.88867 8.66546 6.88867 8.66541C6.88867 8.66536 6.88867 8.66531 6.88867 8.66526C6.88867 8.66521 6.88867 8.66516 6.88867 8.66511C6.88867 8.66506 6.88867 8.66501 6.88867 8.66496C6.88867 8.66491 6.88867 8.66485 6.88867 8.6648C6.88867 8.66475 6.88867 8.6647 6.88867 8.66465C6.88867 8.6646 6.88867 8.66455 6.88867 8.6645C6.88867 8.66445 6.88867 8.6644 6.88867 8.66435C6.88867 8.6643 6.88867 8.66424 6.88867 8.66419C6.88867 8.66414 6.88867 8.66409 6.88867 8.66404C6.88867 8.66399 6.88867 8.66394 6.88867 8.66389C6.88867 8.66384 6.88867 8.66379 6.88867 8.66374C6.88867 8.66369 6.88867 8.66364 6.88867 8.66358C6.88867 8.66353 6.88867 8.66348 6.88867 8.66343C6.88867 8.66338 6.88867 8.66333 6.88867 8.66328C6.88867 8.66323 6.88867 8.66318 6.88867 8.66313C6.88867 8.66308 6.88867 8.66303 6.88867 8.66297C6.88867 8.66292 6.88867 8.66287 6.88867 8.66282C6.88867 8.66277 6.88867 8.66272 6.88867 8.66267C6.88867 8.66262 6.88867 8.66257 6.88867 8.66252C6.88867 8.66247 6.88867 8.66242 6.88867 8.66236C6.88867 8.66231 6.88867 8.66226 6.88867 8.66221C6.88867 8.66216 6.88867 8.66211 6.88867 8.66206C6.88867 8.66201 6.88867 8.66196 6.88867 8.66191C6.88867 8.66186 6.88867 8.66181 6.88867 8.66175C6.88867 8.6617 6.88867 8.66165 6.88867 8.6616C6.88867 8.66155 6.88867 8.6615 6.88867 8.66145C6.88867 8.6614 6.88867 8.66135 6.88867 8.6613C6.88867 8.66125 6.88867 8.6612 6.88867 8.66114C6.88867 8.66109 6.88867 8.66104 6.88867 8.66099C6.88867 8.66094 6.88867 8.66089 6.88867 8.66084C6.88867 8.66079 6.88867 8.66074 6.88867 8.66069C6.88867 8.66064 6.88867 8.66059 6.88867 8.66053C6.88867 8.66048 6.88867 8.66043 6.88867 8.66038C6.88867 8.66033 6.88867 8.66028 6.88867 8.66023C6.88867 8.66018 6.88867 8.66013 6.88867 8.66008C6.88867 8.66003 6.88867 8.65998 6.88867 8.65992C6.88867 8.65987 6.88867 8.65982 6.88867 8.65977C6.88867 8.65972 6.88867 8.65967 6.88867 8.65962C6.88867 8.65957 6.88867 8.65952 6.88867 8.65947C6.88867 8.65942 6.88867 8.65937 6.88867 8.65931C6.88867 8.65926 6.88867 8.65921 6.88867 8.65916C6.88867 8.65911 6.88867 8.65906 6.88867 8.65901C6.88867 8.65896 6.88867 8.65891 6.88867 8.65886C6.88867 8.65881 6.88867 8.65876 6.88867 8.6587C6.88867 8.65865 6.88867 8.6586 6.88867 8.65855C6.88867 8.6585 6.88867 8.65845 6.88867 8.6584C6.88867 8.65835 6.88867 8.6583 6.88867 8.65825C6.88867 8.6582 6.88867 8.65815 6.88867 8.6581C6.88867 8.65804 6.88867 8.65799 6.88867 8.65794C6.88867 8.65789 6.88867 8.65784 6.88867 8.65779C6.88867 8.65774 6.88867 8.65769 6.88867 8.65764C6.88867 8.65759 6.88867 8.65754 6.88867 8.65749C6.88867 8.65743 6.88867 8.65738 6.88867 8.65733C6.88867 8.65728 6.88867 8.65723 6.88867 8.65718C6.88867 8.65713 6.88867 8.65708 6.88867 8.65703C6.88867 8.65698 6.88867 8.65693 6.88867 8.65688C6.88867 8.65682 6.88867 8.65677 6.88867 8.65672C6.88867 8.65667 6.88867 8.65662 6.88867 8.65657C6.88867 8.65652 6.88867 8.65647 6.88867 8.65642C6.88867 8.65637 6.88867 8.65632 6.88867 8.65627C6.88867 8.65621 6.88867 8.65616 6.88867 8.65611C6.88867 8.65606 6.88867 8.65601 6.88867 8.65596C6.88867 8.65591 6.88867 8.65586 6.88867 8.65581C6.88867 8.65576 6.88867 8.65571 6.88867 8.65566C6.88867 8.6556 6.88867 8.65555 6.88867 8.6555C6.88867 8.65545 6.88867 8.6554 6.88867 8.65535C6.88867 8.6553 6.88867 8.65525 6.88867 8.6552C6.88867 8.65515 6.88867 8.6551 6.88867 8.65505C6.88867 8.65499 6.88867 8.65494 6.88867 8.65489C6.88867 8.65484 6.88867 8.65479 6.88867 8.65474C6.88867 8.65469 6.88867 8.65464 6.88867 8.65459C6.88867 8.65454 6.88867 8.65449 6.88867 8.65444C6.88867 8.65438 6.88867 8.65433 6.88867 8.65428C6.88867 8.65423 6.88867 8.65418 6.88867 8.65413C6.88867 8.65408 6.88867 8.65403 6.88867 8.65398C6.88867 8.65393 6.88867 8.65388 6.88867 8.65383C6.88867 8.65377 6.88867 8.65372 6.88867 8.65367C6.88867 8.65362 6.88867 8.65357 6.88867 8.65352C6.88867 8.65347 6.88867 8.65342 6.88867 8.65337C6.88867 8.65332 6.88867 8.65327 6.88867 8.65322C6.88867 8.65316 6.88867 8.65311 6.88867 8.65306C6.88867 8.65301 6.88867 8.65296 6.88867 8.65291C6.88867 8.65286 6.88867 8.65281 6.88867 8.65276C6.88867 8.65271 6.88867 8.65266 6.88867 8.65261C6.88867 8.65256 6.88867 8.6525 6.88867 8.65245C6.88867 8.6524 6.88867 8.65235 6.88867 8.6523C6.88867 8.65225 6.88867 8.6522 6.88867 8.65215C6.88867 8.6521 6.88867 8.65205 6.88867 8.652C6.88867 8.65195 6.88867 8.65189 6.88867 8.65184C6.88867 8.65179 6.88867 8.65174 6.88867 8.65169C6.88867 8.65164 6.88867 8.65159 6.88867 8.65154C6.88867 8.65149 6.88867 8.65144 6.88867 8.65139C6.88867 8.65134 6.88867 8.65128 6.88867 8.65123C6.88867 8.65118 6.88867 8.65113 6.88867 8.65108C6.88867 8.65103 6.88867 8.65098 6.88867 8.65093C6.88867 8.65088 6.88867 8.65083 6.88867 8.65078C6.88867 8.65073 6.88867 8.65067 6.88867 8.65062C6.88867 8.65057 6.88867 8.65052 6.88867 8.65047C6.88867 8.65042 6.88867 8.65037 6.88867 8.65032C6.88867 8.65027 6.88867 8.65022 6.88867 8.65017C6.88867 8.65012 6.88867 8.65006 6.88867 8.65001C6.88867 8.64996 6.88867 8.64991 6.88867 8.64986C6.88867 8.64981 6.88867 8.64976 6.88867 8.64971C6.88867 8.64966 6.88867 8.64961 6.88867 8.64956C6.88867 8.64951 6.88867 8.64945 6.88867 8.6494C6.88867 8.64935 6.88867 8.6493 6.88867 8.64925C6.88867 8.6492 6.88867 8.64915 6.88867 8.6491C6.88867 8.64905 6.88867 8.649 6.88867 8.64895C6.88867 8.6489 6.88867 8.64884 6.88867 8.64879C6.88867 8.64874 6.88867 8.64869 6.88867 8.64864C6.88867 8.64859 6.88867 8.64854 6.88867 8.64849C6.88867 8.64844 6.88867 8.64839 6.88867 8.64834C6.88867 8.64829 6.88867 8.64823 6.88867 8.64818C6.88867 8.64813 6.88867 8.64808 6.88867 8.64803C6.88867 8.64798 6.88867 8.64793 6.88867 8.64788C6.88867 8.64783 6.88867 8.64778 6.88867 8.64773C6.88867 8.64768 6.88867 8.64762 6.88867 8.64757C6.88867 8.64752 6.88867 8.64747 6.88867 8.64742C6.88867 8.64737 6.88867 8.64732 6.88867 8.64727C6.88867 8.64722 6.88867 8.64717 6.88867 8.64712C6.88867 8.64707 6.88867 8.64702 6.88867 8.64696C6.88867 8.64691 6.88867 8.64686 6.88867 8.64681C6.88867 8.64676 6.88867 8.64671 6.88867 8.64666C6.88867 8.64661 6.88867 8.64656 6.88867 8.64651C6.88867 8.64646 6.88867 8.64641 6.88867 8.64635C6.88867 8.6463 6.88867 8.64625 6.88867 8.6462C6.88867 8.64615 6.88867 8.6461 6.88867 8.64605C6.88867 8.646 6.88867 8.64595 6.88867 8.6459C6.88867 8.64585 6.88867 8.6458 6.88867 8.64574C6.88867 8.64569 6.88867 8.64564 6.88867 8.64559C6.88867 8.64554 6.88867 8.64549 6.88867 8.64544C6.88867 8.64539 6.88867 8.64534 6.88867 8.64529C6.88867 8.64524 6.88867 8.64519 6.88867 8.64513C6.88867 8.64508 6.88867 8.64503 6.88867 8.64498C6.88867 8.64493 6.88867 8.64488 6.88867 8.64483C6.88867 8.64478 6.88867 8.64473 6.88867 8.64468C6.88867 8.64463 6.88867 8.64458 6.88867 8.64452C6.88867 8.64447 6.88867 8.64442 6.88867 8.64437C6.88867 8.64432 6.88867 8.64427 6.88867 8.64422C6.88867 8.64417 6.88867 8.64412 6.88867 8.64407C6.88867 8.64402 6.88867 8.64397 6.88867 8.64391C6.88867 8.64386 6.88867 8.64381 6.88867 8.64376C6.88867 8.64371 6.88867 8.64366 6.88867 8.64361C6.88867 8.64356 6.88867 8.64351 6.88867 8.64346C6.88867 8.64341 6.88867 8.64336 6.88867 8.6433C6.88867 8.64325 6.88867 8.6432 6.88867 8.64315C6.88867 8.6431 6.88867 8.64305 6.88867 8.643C6.88867 8.64295 6.88867 8.6429 6.88867 8.64285C6.88867 8.6428 6.88867 8.64275 6.88867 8.64269C6.88867 8.64264 6.88867 8.64259 6.88867 8.64254C6.88867 8.64249 6.88867 8.64244 6.88867 8.64239C6.88867 8.64234 6.88867 8.64229 6.88867 8.64224C6.88867 8.64219 6.88867 8.64214 6.88867 8.64208C6.88867 8.64203 6.88867 8.64198 6.88867 8.64193C6.88867 8.64188 6.88867 8.64183 6.88867 8.64178C6.88867 8.64173 6.88867 8.64168 6.88867 8.64163C6.88867 8.64158 6.88867 8.64153 6.88867 8.64148C6.88867 8.64142 6.88867 8.64137 6.88867 8.64132C6.88867 8.64127 6.88867 8.64122 6.88867 8.64117C6.88867 8.64112 6.88867 8.64107 6.88867 8.64102C6.88867 8.64097 6.88867 8.64092 6.88867 8.64087C6.88867 8.64081 6.88867 8.64076 6.88867 8.64071C6.88867 8.64066 6.88867 8.64061 6.88867 8.64056C6.88867 8.64051 6.88867 8.64046 6.88867 8.64041C6.88867 8.64036 6.88867 8.64031 6.88867 8.64026C6.88867 8.6402 6.88867 8.64015 6.88867 8.6401C6.88867 8.64005 6.88867 8.64 6.88867 8.63995C6.88867 8.6399 6.88867 8.63985 6.88867 8.6398C6.88867 8.63975 6.88867 8.6397 6.88867 8.63965C6.88867 8.63959 6.88867 8.63954 6.88867 8.63949C6.88867 8.63944 6.88867 8.63939 6.88867 8.63934C6.88867 8.63929 6.88867 8.63924 6.88867 8.63919C6.88867 8.63914 6.88867 8.63909 6.88867 8.63904C6.88867 8.63898 6.88867 8.63893 6.88867 8.63888C6.88867 8.63883 6.88867 8.63878 6.88867 8.63873C6.88867 8.63868 6.88867 8.63863 6.88867 8.63858C6.88867 8.63853 6.88867 8.63848 6.88867 8.63843C6.88867 8.63837 6.88867 8.63832 6.88867 8.63827C6.88867 8.63822 6.88867 8.63817 6.88867 8.63812C6.88867 8.63807 6.88867 8.63802 6.88867 8.63797C6.88867 8.63792 6.88867 8.63787 6.88867 8.63782C6.88867 8.63776 6.88867 8.63771 6.88867 8.63766C6.88867 8.63761 6.88867 8.63756 6.88867 8.63751C6.88867 8.63746 6.88867 8.63741 6.88867 8.63736C6.88867 8.63731 6.88867 8.63726 6.88867 8.63721C6.88867 8.63715 6.88867 8.6371 6.88867 8.63705C6.88867 8.637 6.88867 8.63695 6.88867 8.6369C6.88867 8.63685 6.88867 8.6368 6.88867 8.63675H6.53701ZM6.53701 8.71482H6.18535C6.18535 8.76006 6.18909 8.80739 6.19868 8.85535L6.54351 8.78638L6.88834 8.71741C6.88926 8.722 6.88867 8.72162 6.88867 8.71482H6.53701Z" fill="black" mask="url(#path-5-outside-1_651_1396)"/>
</svg>
